<svg xmlns="http://www.w3.org/2000/svg" width="397.639" height="512" viewBox="0 0 397.639 512">
  <g id="singapore-pin" transform="translate(-57.18)">
    <path id="Path_35" data-name="Path 35" d="M434.44,110.654C401.18,45.876,334.359,0,255.98,0V101.329c55.478,0,100.593,43.671,100.594,99.151,0,54.8-45.491,102.048-100.594,102.051V512c70.645-73.617,151.953-154.542,187.529-251.428C461.3,212.121,457.979,156.5,434.44,110.654Z" fill="#ff8484"/>
    <path id="Path_36" data-name="Path 36" d="M68.492,260.572C104.067,357.458,185.374,438.383,256.02,512V302.531c-55.1,0-100.6-47.246-100.594-102.051,0-55.478,45.116-99.147,100.594-99.151V0C177.641,0,110.82,45.876,77.56,110.654,54.021,156.5,50.7,212.121,68.492,260.572Z" fill="#ff5d5d"/>
    <circle id="Ellipse_11" data-name="Ellipse 11" cx="160" cy="160" r="160" transform="translate(96 38.773)" fill="#f0f0f0"/>
    <path id="Path_37" data-name="Path 37" d="M96,198.772a160,160,0,1,1,320,0" fill="#d80027"/>
    <g id="Group_73" data-name="Group 73">
      <path id="Path_38" data-name="Path 38" d="M193.391,122.25a48.706,48.706,0,0,1,38.261-47.564,48.694,48.694,0,1,0,0,95.125A48.7,48.7,0,0,1,193.391,122.25Z" fill="#f0f0f0"/>
      <path id="Path_39" data-name="Path 39" d="M256,77.033l3.454,10.629h11.175l-9.042,6.568,3.455,10.629L256,98.29l-9.042,6.569,3.455-10.629-9.042-6.568h11.175Z" fill="#f0f0f0"/>
      <path id="Path_40" data-name="Path 40" d="M228.891,97.9l3.452,10.629h11.176l-9.041,6.569,3.454,10.628-9.041-6.569-9.043,6.569L223.3,115.1l-9.041-6.569h11.175Z" fill="#f0f0f0"/>
      <path id="Path_41" data-name="Path 41" d="M283.109,97.9l3.455,10.629h11.175L288.7,115.1l3.453,10.628-9.042-6.569-9.041,6.569,3.454-10.628-9.041-6.569h11.176Z" fill="#f0f0f0"/>
      <path id="Path_42" data-name="Path 42" d="M272.675,129.206l3.454,10.629H287.3l-9.042,6.569,3.453,10.629-9.041-6.569-9.041,6.569,3.454-10.629-9.041-6.569h11.174Z" fill="#f0f0f0"/>
      <path id="Path_43" data-name="Path 43" d="M239.325,129.206l3.454,10.629h11.174l-9.041,6.569,3.454,10.629-9.041-6.569-9.041,6.569,3.453-10.629-9.042-6.569h11.176Z" fill="#f0f0f0"/>
    </g>
    <path id="Path_44" data-name="Path 44" d="M255.928,21.706c-73.745,0-141.451,47.553-166.61,116.807-25.343,69.773-3.142,149.835,53.974,197.07,57.236,47.338,140.369,53.625,203.978,15.148C410.9,312.242,444.5,236.05,429.541,163.158,414.888,91.77,355.517,35.12,283.472,23.842a178.226,178.226,0,0,0-27.544-2.136M398.59,263.184c-30.241,67.01-105.732,104.8-177.479,88.4-55.215-12.621-100.384-55.764-115.778-110.2-15.749-55.658,1.328-116.8,43.417-156.425,45.534-42.867,114.172-54.571,171.321-28.8C388.3,86.931,426.042,164.308,407.722,237.009a159.653,159.653,0,0,1-9.132,26.175c-2.088,4.627,1.542-3.445,0,0" fill="#c7c7c7"/>
  </g>
</svg>
